<svg width="139" height="34" viewBox="0 0 139 34" fill="none" xmlns="http://www.w3.org/2000/svg">
<path d="M24.096 28.48H12.096L10.272 34H0.384L12.72 0.159998H23.568L35.856 34H25.92L24.096 28.48ZM21.744 21.28L18.096 10.336L14.496 21.28H21.744ZM47.5144 0.159998C51.0664 0.159998 54.1704 0.879998 56.8264 2.32C59.5144 3.728 61.5784 5.712 63.0184 8.272C64.4584 10.832 65.1784 13.76 65.1784 17.056C65.1784 20.32 64.4424 23.232 62.9704 25.792C61.5304 28.352 59.4664 30.368 56.7784 31.84C54.1224 33.28 51.0344 34 47.5144 34H34.1224V0.159998H47.5144ZM46.7944 25.696C49.5464 25.696 51.7064 24.944 53.2744 23.44C54.8424 21.936 55.6264 19.808 55.6264 17.056C55.6264 14.272 54.8424 12.128 53.2744 10.624C51.7064 9.088 49.5464 8.32 46.7944 8.32H43.5304V25.696H46.7944ZM74.0273 7.696V13.216H84.8273V20.368H74.0273V26.464H86.2673V34H64.6193V0.159998H86.2673V7.696H74.0273ZM95.5241 7.696V13.216H106.324V20.368H95.5241V26.464H107.764V34H86.1161V0.159998H107.764V7.696H95.5241ZM138.957 34H129.549L117.021 15.088V34H107.613V0.159998H117.021L129.549 19.312V0.159998H138.957V34Z" fill="#001740"/>
</svg>
