<svg width="24" height="31" viewBox="0 0 24 31" fill="none" xmlns="http://www.w3.org/2000/svg">
<path d="M21.97 23.4125C21.97 23.8625 21.89 24.325 21.72 24.775C21.55 25.225 21.33 25.65 21.04 26.05C20.55 26.725 20.01 27.2125 19.4 27.525C18.8 27.8375 18.15 28 17.45 28C16.43 28 15.34 27.7 14.19 27.0875C13.04 26.475 11.89 25.65 10.75 24.6125C9.6 23.5625 8.51 22.4 7.47 21.1125C6.44 19.8125 5.51 18.45 4.68 17.025C3.86 15.6 3.2 14.175 2.72 12.7625C2.24 11.3375 2 9.975 2 8.675C2 7.825 2.12 7.0125 2.36 6.2625C2.6 5.5 2.98 4.8 3.51 4.175C4.15 3.3875 4.85 3 5.59 3C5.87 3 6.15 3.075 6.4 3.225C6.66 3.375 6.89 3.6 7.07 3.925L9.39 8.0125C9.57 8.325 9.7 8.6125 9.79 8.8875C9.88 9.15 9.93 9.4125 9.93 9.65C9.93 9.95 9.86 10.25 9.72 10.5375C9.59 10.825 9.4 11.125 9.16 11.425L8.4 12.4125C8.29 12.55 8.24 12.7125 8.24 12.9125C8.24 13.0125 8.25 13.1 8.27 13.2C8.3 13.3 8.33 13.375 8.35 13.45C8.53 13.8625 8.84 14.4 9.28 15.05C9.73 15.7 10.21 16.3625 10.73 17.025C11.27 17.6875 11.79 18.3 12.32 18.8625C12.84 19.4125 13.27 19.7875 13.61 20.0125C13.66 20.0375 13.72 20.075 13.79 20.1125C13.87 20.15 13.95 20.1625 14.04 20.1625C14.21 20.1625 14.34 20.0875 14.45 19.95L15.21 19.0125C15.46 18.7 15.7 18.4625 15.93 18.3125C16.16 18.1375 16.39 18.05 16.64 18.05C16.83 18.05 17.03 18.1 17.25 18.2125C17.47 18.325 17.7 18.4875 17.95 18.7L21.26 21.6375C21.52 21.8625 21.7 22.125 21.81 22.4375C21.91 22.75 21.97 23.0625 21.97 23.4125Z" stroke="white" stroke-width="1.5" stroke-miterlimit="10"/>
</svg>
